# xmcd
#
# Track frame offsets: 
#        150
#        16600
#        31832
#        43485
#        58382
#        77610
#        96485
#        111970
#        128747
#        140412
#
# Disc length: 2107 seconds
#
# Revision: 0
# Processed by: cddbd v1.5.2PL0 Copyright (c) Steve Scherf et al.
# Submitted via: ExactAudioCopy v0.95b4
#
DISCID=8608390a
DTITLE=Tom Steele - After Another Day
DYEAR=1996
DGENRE=Country
TTITLE0=Northern Country
TTITLE1=Memory's On My Mind
TTITLE2=Never Say Good Bye
TTITLE3=Bed Of Nails
TTITLE4=What It Can Be
TTITLE5=After Another Day
TTITLE6=For Cryin Out Loud
TTITLE7=If Only
TTITLE8=100%
TTITLE9=All She Wrote
EXTD=
EXTT0=
EXTT1=
EXTT2=
EXTT3=
EXTT4=
EXTT5=
EXTT6=
EXTT7=
EXTT8=
EXTT9=
PLAYORDER=
